<?xml version="1.0" encoding="iso-8859-1"?>
<!-- Generator: Adobe Illustrator 18.0.0, SVG Export Plug-In . SVG Version: 6.00 Build 0)  -->
<!DOCTYPE svg PUBLIC "-//W3C//DTD SVG 1.1//EN" "http://www.w3.org/Graphics/SVG/1.1/DTD/svg11.dtd">
<svg version="1.1" id="Layer_1" xmlns="http://www.w3.org/2000/svg" xmlns:xlink="http://www.w3.org/1999/xlink" x="0px" y="0px"
	 viewBox="0 0 300 136.933" style="enable-background:new 0 0 300 136.933;" xml:space="preserve">
<g>
	<g>
		<path style="fill:#3C3E3E;" d="M141.839,107.773c-2.981,0-5.392-2.009-5.392-5.082c0-2.994,2.295-5.094,5.236-5.094
			c1.789,0,3.422,0.661,4.679,1.932l-0.817,0.79c-1.114-0.984-2.358-1.594-3.927-1.594c-2.203,0-4.031,1.711-4.031,3.941
			c0,2.449,1.984,3.966,4.317,3.966c1.555,0,2.747-0.546,3.823-1.659l0.779,0.868C145.145,107.189,143.809,107.773,141.839,107.773z
			"/>
		<path style="fill:#3C3E3E;" d="M158.982,107.773c-2.825,0-5.197-2.178-5.197-5.042c0-2.904,2.423-5.107,5.276-5.107
			c2.852,0,5.184,2.139,5.184,5.042C164.245,105.621,161.9,107.773,158.982,107.773z M159.073,98.777
			c-2.243,0-4.135,1.659-4.135,3.954c0,2.243,1.88,3.902,4.071,3.902c2.243,0,4.083-1.646,4.083-3.941
			C163.092,100.436,161.302,98.777,159.073,98.777z"/>
	</g>
	<g>
		<polygon style="fill:#3C3E3E;" points="149.838,118.975 154.286,120.309 149.838,121.644 		"/>
		<path style="fill:#3C3E3E;" d="M163.133,124.813c0,3.528-3.007,6.603-7.431,8.196c-2.924-2.345-4.801-5.945-4.801-9.976h-1.112
			c0,4.031-1.877,7.63-4.801,9.976c-4.424-1.593-7.431-4.668-7.431-8.196h-1.112v12.12h0.556h10.856h4.975h10.856h0.556v-12.12
			H163.133z M137.559,128.716c1.259,2.119,3.513,3.894,6.365,5.062c-1.85,1.196-4.026,1.928-6.365,2.029V128.716z M142.45,135.821
			c3.793-1.622,6.724-4.884,7.896-8.89c1.172,4.006,4.103,7.268,7.896,8.89H142.45z M163.133,135.807
			c-2.338-0.101-4.514-0.833-6.364-2.029c2.852-1.168,5.106-2.943,6.364-5.062V135.807z"/>
	</g>
	<g>
		<path style="fill:#3C3E3E;" d="M22.906,25.005h0.572l0.155,9.326h-0.51c-0.35-1.123-0.675-2.018-0.974-2.683
			c-0.299-0.665-0.629-1.25-0.99-1.755c-1.011-1.474-2.286-2.639-3.827-3.495c-1.542-0.856-3.127-1.284-4.757-1.284
			c-0.845,0-1.686,0.155-2.521,0.464s-1.51,0.722-2.026,1.237c-0.856,0.856-1.478,2.037-1.863,3.542
			c-0.388,1.506-0.581,3.449-0.581,5.831c0,0.711,0.031,1.418,0.093,2.119c0.062,0.702,0.145,1.322,0.247,1.864
			c0.103,0.541,0.232,1.073,0.387,1.593c0.155,0.521,0.325,0.946,0.51,1.276c0.319,0.536,0.683,1.005,1.09,1.407
			c0.408,0.402,0.887,0.753,1.44,1.052c0.551,0.299,1.136,0.518,1.755,0.657c0.619,0.139,1.268,0.209,1.949,0.209
			c0.876,0,1.753-0.11,2.629-0.333c0.876-0.221,1.583-0.513,2.119-0.874c1.021-0.701,1.531-1.639,1.531-2.815v-1.114
			c0-2.619-1.309-3.929-3.929-3.929h-1.871v-0.572H28.32v0.572h-0.495c-1.33,0-2.317,0.323-2.963,0.967
			c-0.644,0.645-0.966,1.632-0.966,2.962v5.073h-0.572c-0.464-0.433-0.869-0.721-1.215-0.866c-0.344-0.144-0.775-0.217-1.291-0.217
			c-0.454,0-0.875,0.044-1.26,0.131c-0.388,0.088-0.927,0.276-1.617,0.565c-1.123,0.402-2.016,0.673-2.676,0.812
			c-0.659,0.139-1.469,0.209-2.428,0.209c-1.815,0-3.508-0.273-5.082-0.82c-1.572-0.546-2.939-1.322-4.097-2.328
			c-1.161-1.005-2.06-2.189-2.7-3.55S0,37.415,0,35.847c0-0.948,0.124-1.884,0.371-2.807c0.247-0.922,0.603-1.781,1.067-2.575
			c0.464-0.794,1.042-1.547,1.732-2.258c0.804-0.794,1.689-1.464,2.653-2.011c0.963-0.546,1.984-0.969,3.062-1.268
			c1.077-0.299,2.151-0.449,3.224-0.449s2.122,0.137,3.148,0.41c1.025,0.273,2.151,0.714,3.379,1.322
			c0.918,0.464,1.562,0.696,1.933,0.696c0.381,0,0.755-0.149,1.122-0.449C22.058,26.16,22.463,25.675,22.906,25.005z"/>
		<path style="fill:#3C3E3E;" d="M138.816,24.881h8.677l15.018,15.559v-9.311c0-1.134-0.194-2.127-0.579-2.977
			c-0.388-0.851-0.946-1.497-1.679-1.941c-0.392-0.247-0.786-0.423-1.184-0.526c-0.397-0.103-0.951-0.18-1.662-0.232v-0.572h10.703
			v0.572h-0.217c-1.557,0-2.743,0.495-3.557,1.485c-0.814,0.99-1.222,2.428-1.222,4.315v15.451h-0.51l-18.653-19.163v12.837
			c0,1.248,0.149,2.245,0.449,2.993c0.299,0.748,0.783,1.333,1.454,1.755c0.547,0.33,1.212,0.541,1.995,0.634
			c0.433,0.072,1.052,0.124,1.856,0.155v0.572H138.43v-0.572c1.154-0.062,2.096-0.265,2.822-0.611
			c0.728-0.345,1.264-0.858,1.609-1.539c0.346-0.681,0.519-1.526,0.519-2.537V29.011c0-0.752-0.167-1.392-0.502-1.918
			c-0.336-0.526-0.823-0.93-1.462-1.214c-0.64-0.283-1.413-0.425-2.32-0.425h-0.278V24.881z"/>
		<path style="fill:#3C3E3E;" d="M174.006,24.881h11.244l0.031,0.572c-0.918,0.011-1.59,0.134-2.019,0.371
			c-0.427,0.238-0.641,0.609-0.641,1.114c0,0.495,0.093,1.016,0.278,1.562l4.563,12.636l4.408-10.966
			c-0.361-1.052-0.678-1.825-0.951-2.32c-0.274-0.495-0.621-0.943-1.045-1.346c-0.371-0.392-0.755-0.665-1.152-0.82
			c-0.398-0.155-0.88-0.232-1.447-0.232v-0.572H199v0.572h-0.572c-0.928,0-1.649,0.157-2.165,0.472
			c-0.516,0.315-0.773,0.771-0.773,1.369c0,0.402,0.072,0.784,0.217,1.145l4.655,12.698l4.563-11.631
			c0.226-0.629,0.34-1.196,0.34-1.701c0-0.773-0.301-1.351-0.906-1.732c-0.602-0.381-1.533-0.588-2.791-0.619l-0.031-0.572h8.677
			v0.572c-0.578,0.041-1.043,0.131-1.4,0.271c-0.354,0.139-0.744,0.369-1.167,0.688c-0.866,0.681-1.603,1.779-2.212,3.294
			l-6.79,17.261h-0.572l-5.908-16.101l-6.434,16.101h-0.603l-6.249-17.106c-0.547-1.557-1.16-2.681-1.841-3.372
			c-0.681-0.69-1.51-1.036-2.49-1.036h-0.541V24.881z"/>
		<path style="fill:#3C3E3E;" d="M216.556,45.885h0.603c1.33,0,2.317-0.322,2.961-0.967c0.645-0.644,0.967-1.632,0.967-2.962
			c0-0.608,0-1.154,0-1.639c0-0.484,0-0.948,0-1.392c0-0.443,0-1.108,0-1.995c0-3.629,0-6.305,0-8.027
			c-0.083-0.681-0.208-1.222-0.38-1.624c-0.169-0.402-0.425-0.737-0.765-1.005c-0.619-0.546-1.547-0.82-2.784-0.82h-0.603v-0.572
			h13.611v0.572h-0.603c-1.33,0-2.314,0.32-2.954,0.959c-0.64,0.64-0.959,1.63-0.959,2.97v12.574c0,1.33,0.322,2.318,0.966,2.962
			c0.645,0.645,1.627,0.967,2.947,0.967h0.603v0.603h-13.611V45.885z"/>
		<path style="fill:#3C3E3E;" d="M261.228,38.878h0.541c-0.247,0.918-0.52,1.681-0.82,2.289c-0.299,0.609-0.711,1.243-1.237,1.902
			c-2.094,2.578-4.893,3.867-8.398,3.867c-2.206,0-4.263-0.513-6.171-1.539c-1.908-1.026-3.424-2.407-4.547-4.145
			c-1.123-1.737-1.686-3.611-1.686-5.622c0-1.196,0.222-2.384,0.665-3.565c0.443-1.18,1.09-2.283,1.942-3.31
			c0.849-1.026,1.838-1.905,2.961-2.637c1.701-1.114,3.666-1.67,5.893-1.67c0.742,0,1.447,0.065,2.11,0.193
			c0.666,0.129,1.295,0.335,1.887,0.619c0.593,0.284,1.205,0.657,1.834,1.121c0.702,0.485,1.216,0.727,1.547,0.727
			c0.733,0,1.649-0.763,2.753-2.289h0.541l0.449,10.394h-0.51c-0.176-0.752-0.343-1.366-0.502-1.841
			c-0.16-0.474-0.374-0.969-0.643-1.485c-0.711-1.454-1.552-2.701-2.521-3.743c-0.969-1.041-2.026-1.835-3.171-2.382
			c-1.145-0.546-2.32-0.82-3.526-0.82c-1.444,0-2.62,0.385-3.526,1.152c-0.907,0.768-1.58,1.964-2.018,3.588
			c-0.439,1.624-0.658,3.689-0.658,6.194c0,1.444,0.077,2.722,0.232,3.836c0.155,1.114,0.395,2.055,0.719,2.823
			c0.326,0.768,0.735,1.41,1.23,1.926c0.609,0.619,1.348,1.09,2.22,1.415c0.87,0.325,1.822,0.487,2.853,0.487
			c0.959,0,1.88-0.124,2.76-0.371c0.883-0.247,1.707-0.616,2.475-1.106c0.769-0.489,1.472-1.095,2.112-1.817
			c0.516-0.598,0.934-1.199,1.253-1.802C260.588,40.665,260.908,39.868,261.228,38.878z"/>
		<path style="fill:#3C3E3E;" d="M270.072,45.885h0.696c1.33,0,2.317-0.322,2.963-0.967c0.644-0.644,0.966-1.632,0.966-2.962
			c0-0.721,0-1.412,0-2.073c0-0.659,0-1.701,0-3.124c0-1.371,0-2.9,0-4.586c0-1.686,0-2.802,0-3.349
			c-0.093-0.659-0.222-1.183-0.387-1.57c-0.164-0.387-0.418-0.714-0.758-0.982c-0.619-0.546-1.547-0.82-2.784-0.82h-0.742v-0.572
			h13.626v0.572h-0.479c-1.33,0-2.317,0.323-2.963,0.967c-0.644,0.645-0.966,1.632-0.966,2.962v5.8h11.631v-5.8
			c0-1.34-0.319-2.33-0.959-2.97c-0.64-0.639-1.63-0.959-2.97-0.959h-0.449v-0.572H300v0.572h-0.634
			c-1.32,0-2.305,0.323-2.954,0.967c-0.65,0.645-0.974,1.632-0.974,2.962v12.574c0,1.32,0.33,2.305,0.99,2.954
			c0.659,0.65,1.639,0.974,2.939,0.974H300v0.603h-13.502v-0.603h0.449c1.33,0,2.317-0.322,2.963-0.967
			c0.644-0.644,0.966-1.632,0.966-2.962v-6.14h-11.631v6.14c0,1.32,0.33,2.305,0.99,2.954c0.659,0.65,1.639,0.974,2.939,0.974h0.479
			v0.603h-13.58V45.885z"/>
		<path style="fill:#3C3E3E;" d="M127.432,37.595c-0.35,1.248-0.686,2.238-1.005,2.97c-0.557,1.279-1.34,2.346-2.351,3.202
			c-0.588,0.505-1.216,0.915-1.887,1.23c-0.671,0.315-1.426,0.547-2.265,0.696c-0.841,0.15-1.787,0.224-2.839,0.224h-3.557v-9.659
			h0.974c1.134,0,2.127,0.194,2.977,0.579c0.851,0.388,1.497,0.946,1.941,1.679c0.247,0.392,0.423,0.786,0.526,1.184
			c0.103,0.397,0.18,0.95,0.232,1.662h0.572l0-5.406l0-5.406h-0.572c-0.052,0.711-0.129,1.265-0.232,1.662
			c-0.103,0.398-0.278,0.792-0.526,1.184c-0.444,0.733-1.09,1.291-1.941,1.679c-0.851,0.385-1.843,0.579-2.977,0.579h-0.974v-10.2
			h4.253c1.815,0,3.356,0.263,4.625,0.789c0.763,0.33,1.469,0.882,2.119,1.655c0.536,0.65,0.972,1.338,1.308,2.065
			c0.335,0.727,0.713,1.823,1.136,3.287h0.464v-8.367h-22.984v0.572h0.588c1.34,0,2.33,0.32,2.97,0.959
			c0.64,0.64,0.959,1.63,0.959,2.97v12.574c0,2.64-1.309,3.959-3.929,3.959h-0.588l0.031,0.572h23.525v-8.893H127.432z"/>
		<path style="fill:#3C3E3E;" d="M63.484,42.167v0.16c0.09,2.361-0.602,3.292-1.752,3.292c-1.215,0-1.554-0.831-1.778-3.548
			c-0.16-1.918-0.607-3.228-1.375-4.091c-0.864-0.987-2.968-1.934-4.809-2.257c0.831-0.102,1.664-0.241,2.501-0.448
			c1.083-0.268,1.939-0.572,2.567-0.913c1.691-0.99,2.537-2.299,2.537-3.929c0-0.598-0.131-1.201-0.395-1.81
			c-0.262-0.608-0.616-1.134-1.059-1.578c-0.773-0.783-1.819-1.34-3.14-1.67c-1.32-0.33-3.114-0.495-5.382-0.495h-16.75v0.572h0.588
			c1.34,0,2.33,0.32,2.97,0.959c0.64,0.64,0.959,1.63,0.959,2.97v12.574c0,1.33-0.322,2.318-0.966,2.962
			c-0.645,0.645-1.632,0.967-2.963,0.967h-0.588v0.603H48.29v-0.603h-0.634c-1.32,0-2.305-0.325-2.954-0.974
			s-0.974-1.634-0.974-2.954v-6.047h4.857h0.727c0.246,0,0.463-0.002,0.69-0.003l0.001,0.001c3.515,0,4.498,1.979,4.786,4.983
			c0.16,1.535,0.384,2.717,0.704,3.516c0.575,1.566,2.333,2.525,4.507,2.525c2.685,0,4.168-1.248,4.168-4.508v-0.256H63.484z
			 M53.463,34.803c-0.932,0.356-2.126,0.534-3.58,0.534h-6.156v-9.883h6.249c4.176,0,6.264,1.639,6.264,4.918
			c0,1.145-0.229,2.08-0.688,2.807C55.093,33.906,54.397,34.447,53.463,34.803z"/>
		<path style="fill:#3C3E3E;" d="M93.665,37.595c-0.35,1.248-0.686,2.238-1.005,2.97c-0.557,1.279-1.34,2.346-2.351,3.202
			c-0.588,0.505-1.216,0.915-1.887,1.23c-0.671,0.315-1.426,0.547-2.265,0.696c-0.841,0.15-1.787,0.224-2.839,0.224H79.76v-9.659
			h0.974c1.134,0,2.127,0.194,2.977,0.579c0.851,0.388,1.497,0.946,1.941,1.679c0.247,0.392,0.423,0.786,0.526,1.184
			c0.103,0.397,0.18,0.95,0.232,1.662h0.572l0-5.406l0-5.406h-0.572c-0.052,0.711-0.129,1.265-0.232,1.662
			c-0.103,0.398-0.278,0.792-0.526,1.184c-0.444,0.733-1.09,1.291-1.941,1.679c-0.851,0.385-1.843,0.579-2.977,0.579H79.76v-10.2
			h4.253c1.815,0,3.356,0.263,4.625,0.789c0.763,0.33,1.469,0.882,2.119,1.655c0.536,0.65,0.972,1.338,1.308,2.065
			c0.335,0.727,0.713,1.823,1.136,3.287h0.464v-8.367H70.681v0.572h0.588c1.34,0,2.33,0.32,2.97,0.959
			c0.64,0.64,0.959,1.63,0.959,2.97v12.574c0,2.64-1.309,3.959-3.929,3.959h-0.588l0.031,0.572h23.525v-8.893H93.665z"/>
		<g>
			<path style="fill:#3C3E3E;" d="M141.461,74.017c-0.35,1.248-0.686,2.238-1.005,2.97c-0.557,1.279-1.34,2.346-2.351,3.202
				c-0.588,0.505-1.216,0.915-1.887,1.23c-0.671,0.315-1.426,0.547-2.265,0.696c-0.841,0.15-1.787,0.224-2.839,0.224h-3.557v-9.659
				h0.974c1.134,0,2.127,0.194,2.977,0.579c0.851,0.388,1.497,0.946,1.941,1.679c0.247,0.392,0.423,0.786,0.526,1.184
				c0.103,0.397,0.18,0.951,0.232,1.662h0.572l0-5.406l0-5.406h-0.572c-0.052,0.711-0.129,1.265-0.232,1.662
				c-0.103,0.398-0.278,0.792-0.526,1.184c-0.444,0.733-1.09,1.291-1.941,1.679c-0.851,0.385-1.843,0.579-2.977,0.579h-0.974v-10.2
				h4.253c1.815,0,3.356,0.263,4.625,0.789c0.763,0.33,1.469,0.882,2.119,1.655c0.536,0.65,0.972,1.338,1.308,2.065
				c0.335,0.727,0.713,1.823,1.136,3.287h0.464v-8.367h-22.984v0.572h0.588c1.34,0,2.33,0.32,2.97,0.959
				c0.64,0.64,0.959,1.63,0.959,2.97v12.574c0,2.64-1.309,3.959-3.929,3.959h-0.588l0.031,0.572h23.525v-8.893H141.461z"/>
			<path style="fill:#3C3E3E;" d="M83.388,61.303h25.334v10.966l-0.495,0.031c-0.257-2.742-1.083-5.098-2.475-7.068
				c-1.649-2.237-3.743-3.356-6.279-3.356h-1.129v16.503c0,2.619,1.305,3.929,3.913,3.929h3.263v0.603H86.652v-0.603h3.233
				c2.619,0,3.929-1.309,3.929-3.929V61.875h-1.392c-2.577,0-4.671,1.206-6.279,3.619c-0.794,1.187-1.398,2.598-1.81,4.238
				c-0.134,0.557-0.269,1.403-0.402,2.537h-0.541V61.303z"/>
			<path style="fill:#3C3E3E;" d="M216.612,72.269h-0.541c-0.134-1.133-0.269-1.98-0.402-2.537c-0.412-1.639-1.015-3.051-1.81-4.238
				c-1.609-2.413-3.702-3.619-6.279-3.619h-1.392v16.503c0,2.619,1.309,3.929,3.929,3.929h3.233v0.603h-18.869v-0.603h3.263
				c2.608,0,3.913-1.309,3.913-3.929V61.875h-1.129c-2.537,0-4.63,1.119-6.279,3.356c-1.392,1.97-2.217,4.326-2.475,7.068
				l-0.495-0.031V61.303h25.334V72.269z"/>
			<path style="fill:#3C3E3E;" d="M152.686,61.303h8.677l15.018,15.559v-9.311c0-1.135-0.194-2.127-0.579-2.977
				c-0.388-0.852-0.946-1.499-1.679-1.942c-0.392-0.247-0.786-0.423-1.184-0.526c-0.396-0.103-0.95-0.18-1.662-0.232v-0.572h10.703
				v0.572h-0.217c-1.557,0-2.743,0.495-3.557,1.485c-0.814,0.99-1.222,2.428-1.222,4.315v15.451h-0.51l-18.653-19.163v12.837
				c0,1.247,0.149,2.245,0.449,2.994s0.783,1.333,1.454,1.755c0.547,0.33,1.212,0.541,1.995,0.634
				c0.433,0.072,1.052,0.124,1.856,0.155v0.572H152.3v-0.572c1.154-0.062,2.096-0.266,2.822-0.612
				c0.728-0.344,1.264-0.858,1.609-1.538c0.346-0.681,0.519-1.526,0.519-2.537V65.433c0-0.752-0.167-1.392-0.502-1.918
				c-0.336-0.526-0.823-0.931-1.462-1.215c-0.64-0.283-1.413-0.425-2.32-0.425h-0.278V61.303z"/>
		</g>
	</g>
	<g>
		<g>
			<path style="fill:#3C3E3E;" d="M119.099,9.873c-0.87,0.198-1.728-0.3-1.924-1.118c-0.199-0.83,0.363-1.686,1.239-1.886
				c0.876-0.2,1.753,0.328,1.933,1.163C120.525,8.853,119.969,9.675,119.099,9.873z"/>
			<path style="fill:#3C3E3E;" d="M132.764,2.177c0.411,3.388,0.617,5.081,1.029,8.469c-0.46,0.056-0.69,0.085-1.149,0.145
				c-0.441-3.384-0.66-5.076-1.1-8.46c-1.514,0.197-2.269,0.305-3.779,0.542c-0.07-0.45-0.105-0.675-0.176-1.125
				c3.538-0.555,5.315-0.778,8.874-1.116c0.043,0.453,0.064,0.68,0.108,1.133C135.045,1.91,134.283,1.992,132.764,2.177z"/>
			<path style="fill:#3C3E3E;" d="M152.878,9.668c0.033-1.791,0.05-2.687,0.083-4.478c-2.603-0.048-3.906-0.042-6.509,0.029
				c0.049,1.791,0.074,2.686,0.124,4.477c-0.467,0.013-0.701,0.02-1.168,0.037c-0.139-3.865-0.209-5.798-0.348-9.663
				c0.499-0.018,0.75-0.026,1.249-0.04c0.045,1.62,0.067,2.429,0.112,4.049c2.624-0.072,3.937-0.078,6.561-0.03
				c0.03-1.62,0.045-2.43,0.075-4.05c0.501,0.009,0.751,0.015,1.251,0.028c-0.104,3.866-0.157,5.8-0.261,9.666
				C153.58,9.682,153.345,9.677,152.878,9.668z"/>
			<path style="fill:#3C3E3E;" d="M163.287,10.256c0.363-3.851,0.548-5.776,0.911-9.626c3.453,0.327,5.177,0.541,8.61,1.073
				c-0.07,0.45-0.104,0.675-0.174,1.125c-2.915-0.451-4.376-0.639-7.306-0.942c-0.121,1.175-0.182,1.762-0.303,2.936
				c1.508,0.156,2.262,0.244,3.766,0.44c-0.058,0.452-0.088,0.677-0.147,1.129c-1.493-0.194-2.241-0.282-3.737-0.436
				c-0.136,1.313-0.204,1.97-0.34,3.284c2.896,0.299,4.343,0.487,7.224,0.939c-0.071,0.45-0.106,0.676-0.176,1.126
				C168.295,10.782,166.627,10.572,163.287,10.256z"/>
			<path style="fill:#3C3E3E;" d="M181.593,9.873c-0.87-0.198-1.426-1.019-1.249-1.842c0.181-0.834,1.058-1.362,1.934-1.163
				c0.876,0.2,1.438,1.056,1.239,1.886C183.321,9.573,182.463,10.071,181.593,9.873z"/>
		</g>
	</g>
</g>
</svg>
