<?xml version="1.0" encoding="UTF-8" standalone="no"?>
<svg width="476px" height="60px" viewBox="0 0 476 60" version="1.1" xmlns="http://www.w3.org/2000/svg" xmlns:xlink="http://www.w3.org/1999/xlink" xmlns:sketch="http://www.bohemiancoding.com/sketch/ns">
    <g id="Page-1" stroke="none" stroke-width="1" fill="none" fill-rule="evenodd" sketch:type="MSPage">
        <g id="Blog-Desktop-Post-Article-View-4" sketch:type="MSArtboardGroup" transform="translate(-483.000000, -258.000000)" fill="#ffffff">
            <g id="Masthead" sketch:type="MSLayerGroup" transform="translate(484.000000, 259.000000)">
                <g id="Fireside" sketch:type="MSShapeGroup">
                    <path d="M66.8992021,1.56429412 C66.8992021,0.626058824 67.6571809,-0.141588235 68.5835993,-0.141588235 L69.4257979,-0.141588235 C70.3522163,-0.141588235 71.110195,0.626058824 71.110195,1.56429412 L71.110195,56.579 C71.110195,57.5172353 70.3522163,58.2848824 69.4257979,58.2848824 L68.5835993,58.2848824 C67.6571809,58.2848824 66.8992021,57.5172353 66.8992021,56.579 L66.8992021,1.56429412 L66.8992021,1.56429412 Z M75.7422872,56.579 C75.7422872,57.5172353 76.500266,58.2848824 77.4266844,58.2848824 L78.268883,58.2848824 C79.1953014,58.2848824 79.9532801,57.5172353 79.9532801,56.579 L79.9532801,1.56429412 C79.9532801,0.626058824 79.1953014,-0.141588235 78.268883,-0.141588235 L77.4266844,-0.141588235 C76.500266,-0.141588235 75.7422872,0.626058824 75.7422872,1.56429412 L75.7422872,56.579 L75.7422872,56.579 Z" id="Fill-1"></path>
                    <path d="M313.031738,1.56429412 C313.031738,0.626058824 313.790559,-0.141588235 314.716135,-0.141588235 L315.558333,-0.141588235 C316.484752,-0.141588235 317.24273,0.626058824 317.24273,1.56429412 L317.24273,56.579 C317.24273,57.5172353 316.484752,58.2848824 315.558333,58.2848824 L314.716135,58.2848824 C313.790559,58.2848824 313.031738,57.5172353 313.031738,56.579 L313.031738,1.56429412 L313.031738,1.56429412 Z M321.874823,56.579 C321.874823,57.5172353 322.633644,58.2848824 323.55922,58.2848824 L324.401418,58.2848824 C325.327837,58.2848824 326.085816,57.5172353 326.085816,56.579 L326.085816,1.56429412 C326.085816,0.626058824 325.327837,-0.141588235 324.401418,-0.141588235 L323.55922,-0.141588235 C322.633644,-0.141588235 321.874823,0.626058824 321.874823,1.56429412 L321.874823,56.579 L321.874823,56.579 Z" id="Fill-2"></path>
                    <path d="M234.814229,47.6231176 L234.814229,46.7701765 C234.814229,45.8319412 235.572207,45.0642941 236.498626,45.0642941 L282.396764,45.0642941 C285.986215,45.0642941 289.134353,42.4739118 289.134353,39.5201765 C289.134353,36.5664412 285.986215,33.9760588 282.396764,33.9760588 L252.712633,33.9760588 C243.19242,33.9760588 235.447562,26.3234706 235.447562,16.9172353 C235.447562,7.511 243.19242,-0.141588235 252.712633,-0.141588235 L293.13648,-0.141588235 C294.062899,-0.141588235 294.820878,0.626058824 294.820878,1.56429412 L294.820878,2.41723529 C294.820878,3.35547059 294.062899,4.12311765 293.13648,4.12311765 L252.712633,4.12311765 C245.514362,4.12311765 239.658555,9.86170588 239.658555,16.9172353 C239.658555,23.9719118 245.514362,29.7113529 252.712633,29.7113529 L282.396764,29.7113529 C288.331738,29.7113529 293.345346,34.2037941 293.345346,39.5201765 C293.345346,44.8365588 288.331738,49.329 282.396764,49.329 L236.498626,49.329 C235.572207,49.329 234.814229,48.5613529 234.814229,47.6231176 L234.814229,47.6231176 Z M282.396764,20.7554706 L252.712633,20.7554706 C250.469858,20.7554706 248.50164,18.9617353 248.50164,16.9172353 C248.50164,14.8718824 250.469858,13.079 252.712633,13.079 L293.13648,13.079 C294.062899,13.079 294.820878,12.3113529 294.820878,11.3731176 L294.820878,10.5201765 C294.820878,9.58194118 294.062899,8.81429412 293.13648,8.81429412 L252.712633,8.81429412 C248.147074,8.81429412 244.290647,12.5254412 244.290647,16.9172353 C244.290647,21.3090294 248.147074,25.0201765 252.712633,25.0201765 L282.396764,25.0201765 C290.988032,25.0201765 297.977438,31.5247059 297.977438,39.5201765 C297.977438,47.5156471 290.988032,54.0201765 282.396764,54.0201765 L236.498626,54.0201765 C235.572207,54.0201765 234.814229,54.7878235 234.814229,55.7260588 L234.814229,56.579 C234.814229,57.5172353 235.572207,58.2848824 236.498626,58.2848824 L282.396764,58.2848824 C293.309973,58.2848824 302.188431,49.8672059 302.188431,39.5201765 C302.188431,29.1731471 293.309973,20.7554706 282.396764,20.7554706 L282.396764,20.7554706 Z" id="Fill-3"></path>
                    <path d="M57.3183511,10.5201765 L57.3183511,11.3731176 C57.3183511,12.3113529 56.5603723,13.079 55.6339539,13.079 L13.5240248,13.079 C13.0608156,13.079 12.6818262,13.4628235 12.6818262,13.9319412 L12.6818262,19.9025294 C12.6818262,20.3716471 13.0608156,20.7554706 13.5240248,20.7554706 L36.9447252,20.7554706 C37.8703014,20.7554706 38.6291223,21.5231176 38.6291223,22.4613529 L38.6291223,23.3142941 C38.6291223,24.2525294 37.8703014,25.0201765 36.9447252,25.0201765 L10.1552305,25.0201765 C9.22965426,25.0201765 8.47083333,24.2525294 8.47083333,23.3142941 L8.47083333,10.5201765 C8.47083333,9.58194118 9.22965426,8.81429412 10.1552305,8.81429412 L55.6339539,8.81429412 C56.5603723,8.81429412 57.3183511,9.58194118 57.3183511,10.5201765 L57.3183511,10.5201765 Z M36.9447252,29.7113529 L10.1552305,29.7113529 C9.22965426,29.7113529 8.47083333,30.479 8.47083333,31.4172353 L8.47083333,56.579 C8.47083333,57.5172353 9.22965426,58.2848824 10.1552305,58.2848824 L10.9974291,58.2848824 C11.9238475,58.2848824 12.6818262,57.5172353 12.6818262,56.579 L12.6818262,34.829 C12.6818262,34.3598824 13.0608156,33.9760588 13.5240248,33.9760588 L36.9447252,33.9760588 C37.8703014,33.9760588 38.6291223,33.2084118 38.6291223,32.2701765 L38.6291223,31.4172353 C38.6291223,30.479 37.8703014,29.7113529 36.9447252,29.7113529 L36.9447252,29.7113529 Z M55.6339539,-0.141588235 L1.31214539,-0.141588235 C0.386569149,-0.141588235 -0.372251773,0.626058824 -0.372251773,1.56429412 L-0.372251773,56.579 C-0.372251773,57.5172353 0.386569149,58.2848824 1.31214539,58.2848824 L2.15434397,58.2848824 C3.08076241,58.2848824 3.83874113,57.5172353 3.83874113,56.579 L3.83874113,4.97605882 C3.83874113,4.50694118 4.2177305,4.12311765 4.68093972,4.12311765 L55.6339539,4.12311765 C56.5603723,4.12311765 57.3183511,3.35547059 57.3183511,2.41723529 L57.3183511,1.56429412 C57.3183511,0.626058824 56.5603723,-0.141588235 55.6339539,-0.141588235 L55.6339539,-0.141588235 Z" id="Fill-4"></path>
                    <path d="M144.858998,56.7120588 C145.216933,57.5769412 144.752881,58.2848824 143.826463,58.2848824 L142.628856,58.2848824 C141.702438,58.2848824 140.650532,57.5769412 140.29344,56.7120588 L132.170434,37.1080588 C131.991046,36.6756176 131.465514,36.3216471 131.002305,36.3216471 L106.065647,36.3216471 C105.602438,36.3216471 105.223449,36.7054706 105.223449,37.1745882 L105.223449,56.579 C105.223449,57.5172353 104.46547,58.2848824 103.539051,58.2848824 L102.696853,58.2848824 C101.770434,58.2848824 101.012456,57.5172353 101.012456,56.579 L101.012456,33.7628235 C101.012456,32.8245882 101.770434,32.0569412 102.696853,32.0569412 L132.960417,32.0569412 C133.885993,32.0569412 134.937899,32.7648824 135.295833,33.6297647 L138.886968,42.2982059 L138.88781,42.2982059 L140.343129,45.8106176 L140.342287,45.8106176 L144.858998,56.7120588 L144.858998,56.7120588 Z M149.692376,46.0153235 L145.197562,35.1659118 C145.074601,34.8690882 145.322207,34.4554118 145.747518,34.2464412 C146.262943,33.988 146.769947,33.7150588 147.255053,33.4165294 C152.603856,30.1190588 155.965913,24.4103235 155.965913,18.0900294 C155.965913,8.03726471 147.464761,-0.141588235 137.016445,-0.141588235 L93.8537677,-0.141588235 C92.9273493,-0.141588235 92.1693706,0.626058824 92.1693706,1.56429412 L92.1693706,56.579 C92.1693706,57.5172353 92.9273493,58.2848824 93.8537677,58.2848824 L94.6959663,58.2848824 C95.6223848,58.2848824 96.3803635,57.5172353 96.3803635,56.579 L96.3803635,4.97605882 C96.3803635,4.50694118 96.7593528,4.12311765 97.2225621,4.12311765 L137.016445,4.12311765 C145.142819,4.12311765 151.75492,10.3888235 151.75492,18.0900294 C151.75492,24.1365294 147.660151,29.4708235 141.56516,31.3635 L140.453457,31.7089412 C139.842021,31.8982941 139.553989,32.567 139.812544,33.1922059 L140.536835,34.9390294 C140.67664,35.2759412 140.814761,35.6102941 140.935195,35.9037059 L149.557624,56.7120588 C149.914716,57.5769412 150.966622,58.2848824 151.893041,58.2848824 L153.090647,58.2848824 C154.017066,58.2848824 154.481117,57.5769412 154.123183,56.7120588 L149.692376,46.0153235 L149.692376,46.0153235 Z M101.012456,25.6598824 L101.012456,10.5201765 C101.012456,9.58194118 101.770434,8.81429412 102.696853,8.81429412 L137.016445,8.81429412 C142.494947,8.81429412 147.122828,13.0619412 147.122828,18.0900294 C147.122828,23.1172647 142.494947,27.3657647 137.016445,27.3657647 L102.696853,27.3657647 C101.770434,27.3657647 101.012456,26.5981176 101.012456,25.6598824 L101.012456,25.6598824 Z M105.223449,22.2481176 C105.223449,22.7172353 105.602438,23.1010588 106.065647,23.1010588 L137.016445,23.1010588 C140.156161,23.1010588 142.911835,20.7597353 142.911835,18.0900294 C142.911835,15.4203235 140.156161,13.079 137.016445,13.079 L106.065647,13.079 C105.602438,13.079 105.223449,13.4628235 105.223449,13.9319412 L105.223449,22.2481176 L105.223449,22.2481176 Z" id="Fill-5"></path>
                    <path d="M226.76281,46.7701765 L226.76281,47.6231176 C226.76281,48.5613529 226.003989,49.329 225.078413,49.329 L177.648316,49.329 C176.722739,49.329 175.963918,48.5613529 175.963918,47.6231176 L175.963918,33.1231176 C175.963918,32.1848824 176.722739,31.4172353 177.648316,31.4172353 L202.493174,31.4172353 C203.419592,31.4172353 204.177571,32.1848824 204.177571,33.1231176 L204.177571,33.9760588 C204.177571,34.9142941 203.419592,35.6819412 202.493174,35.6819412 L181.01711,35.6819412 C180.553901,35.6819412 180.174911,36.0657647 180.174911,36.5348824 L180.174911,44.2113529 C180.174911,44.6804706 180.553901,45.0642941 181.01711,45.0642941 L225.078413,45.0642941 C226.003989,45.0642941 226.76281,45.8319412 226.76281,46.7701765 L226.76281,46.7701765 Z M225.078413,54.0201765 L172.174025,54.0201765 C171.710816,54.0201765 171.331826,53.6363529 171.331826,53.1672353 L171.331826,4.97605882 C171.331826,4.50694118 171.710816,4.12311765 172.174025,4.12311765 L223.127039,4.12311765 C224.053457,4.12311765 224.811436,3.35547059 224.811436,2.41723529 L224.811436,1.56429412 C224.811436,0.626058824 224.053457,-0.141588235 223.127039,-0.141588235 L168.80523,-0.141588235 C167.879654,-0.141588235 167.120833,0.626058824 167.120833,1.56429412 L167.120833,56.579 C167.120833,57.5172353 167.879654,58.2848824 168.80523,58.2848824 L225.078413,58.2848824 C226.003989,58.2848824 226.76281,57.5172353 226.76281,56.579 L226.76281,55.7260588 C226.76281,54.7878235 226.003989,54.0201765 225.078413,54.0201765 L225.078413,54.0201765 Z M180.174911,14.7848824 L180.174911,13.9319412 C180.174911,13.4628235 180.553901,13.079 181.01711,13.079 L223.127039,13.079 C224.053457,13.079 224.811436,12.3113529 224.811436,11.3731176 L224.811436,10.5201765 C224.811436,9.58194118 224.053457,8.81429412 223.127039,8.81429412 L177.648316,8.81429412 C176.722739,8.81429412 175.963918,9.58194118 175.963918,10.5201765 L175.963918,25.0201765 C175.963918,25.9584118 176.722739,26.7260588 177.648316,26.7260588 L202.493174,26.7260588 C203.419592,26.7260588 204.177571,25.9584118 204.177571,25.0201765 L204.177571,24.1672353 C204.177571,23.229 203.419592,22.4613529 202.493174,22.4613529 L181.01711,22.4613529 C180.553901,22.4613529 180.174911,22.0775294 180.174911,21.6084118 L180.174911,14.7848824 L180.174911,14.7848824 Z" id="Fill-6"></path>
                    <path d="M376.322961,8.81429412 L349.580629,8.81429412 C348.655053,8.81429412 347.896232,9.58194118 347.896232,10.5201765 L347.896232,47.6231176 C347.896232,48.5613529 348.655053,49.329 349.580629,49.329 L376.322961,49.329 C387.350709,49.329 396.323493,40.2417647 396.323493,29.0716471 C396.323493,17.9015294 387.350709,8.81429412 376.322961,8.81429412 L376.322961,8.81429412 Z M376.322961,45.0642941 L352.950266,45.0642941 C352.487057,45.0642941 352.107225,44.6804706 352.107225,44.2113529 L352.107225,13.9319412 C352.107225,13.4628235 352.487057,13.079 352.950266,13.079 L376.322961,13.079 C385.02961,13.079 392.1125,20.2530882 392.1125,29.0716471 C392.1125,37.8902059 385.02961,45.0642941 376.322961,45.0642941 L376.322961,45.0642941 Z M376.39539,-0.141588235 L340.738387,-0.141588235 C339.811968,-0.141588235 339.053989,0.626058824 339.053989,1.56429412 L339.053989,56.579 C339.053989,57.5172353 339.811968,58.2848824 340.738387,58.2848824 L376.39539,58.2848824 L376.402128,58.2831765 C392.262411,58.2388235 405.166578,45.1350882 405.166578,29.0716471 C405.166578,13.0090588 392.262411,-0.0955294118 376.39539,-0.141588235 L376.39539,-0.141588235 Z M376.393706,54.0201765 L344.107181,54.0201765 C343.643972,54.0201765 343.264982,53.6363529 343.264982,53.1672353 L343.264982,4.97605882 C343.264982,4.50694118 343.643972,4.12311765 344.107181,4.12311765 L344.949379,4.12311765 L359.643218,4.12397059 L376.390337,4.12482353 C389.934574,4.16235294 400.955585,15.3537941 400.955585,29.0716471 C400.955585,42.7877941 389.937943,53.9783824 376.393706,54.0201765 L376.393706,54.0201765 Z" id="Fill-7"></path>
                    <path d="M474.578901,46.7701765 L474.578901,47.6231176 C474.578901,48.5613529 473.820922,49.329 472.894504,49.329 L425.465248,49.329 C424.53883,49.329 423.780851,48.5613529 423.780851,47.6231176 L423.780851,33.1231176 C423.780851,32.1848824 424.53883,31.4172353 425.465248,31.4172353 L450.310106,31.4172353 C451.235683,31.4172353 451.994504,32.1848824 451.994504,33.1231176 L451.994504,33.9760588 C451.994504,34.9142941 451.235683,35.6819412 450.310106,35.6819412 L428.834043,35.6819412 C428.371676,35.6819412 427.991844,36.0657647 427.991844,36.5348824 L427.991844,44.2113529 C427.991844,44.6804706 428.371676,45.0642941 428.834043,45.0642941 L472.894504,45.0642941 C473.820922,45.0642941 474.578901,45.8319412 474.578901,46.7701765 L474.578901,46.7701765 Z M472.894504,54.0201765 L419.990957,54.0201765 C419.52859,54.0201765 419.148759,53.6363529 419.148759,53.1672353 L419.148759,4.97605882 C419.148759,4.50694118 419.52859,4.12311765 419.990957,4.12311765 L470.943972,4.12311765 C471.869548,4.12311765 472.628369,3.35547059 472.628369,2.41723529 L472.628369,1.56429412 C472.628369,0.626058824 471.869548,-0.141588235 470.943972,-0.141588235 L416.622163,-0.141588235 C415.695745,-0.141588235 414.937766,0.626058824 414.937766,1.56429412 L414.937766,56.579 C414.937766,57.5172353 415.695745,58.2848824 416.622163,58.2848824 L472.894504,58.2848824 C473.820922,58.2848824 474.578901,57.5172353 474.578901,56.579 L474.578901,55.7260588 C474.578901,54.7878235 473.820922,54.0201765 472.894504,54.0201765 L472.894504,54.0201765 Z M427.991844,14.7848824 L427.991844,13.9319412 C427.991844,13.4628235 428.371676,13.079 428.834043,13.079 L470.943972,13.079 C471.869548,13.079 472.628369,12.3113529 472.628369,11.3731176 L472.628369,10.5201765 C472.628369,9.58194118 471.869548,8.81429412 470.943972,8.81429412 L425.465248,8.81429412 C424.53883,8.81429412 423.780851,9.58194118 423.780851,10.5201765 L423.780851,25.0201765 C423.780851,25.9584118 424.53883,26.7260588 425.465248,26.7260588 L450.310106,26.7260588 C451.235683,26.7260588 451.994504,25.9584118 451.994504,25.0201765 L451.994504,24.1672353 C451.994504,23.229 451.235683,22.4613529 450.310106,22.4613529 L428.834043,22.4613529 C428.371676,22.4613529 427.991844,22.0775294 427.991844,21.6084118 L427.991844,14.7848824 L427.991844,14.7848824 Z" id="Fill-8"></path>
                </g>
            </g>
        </g>
    </g>
</svg>